<mxfile host="app.diagrams.net" agent="Mozilla/5.0 (Windows NT 10.0; Win64; x64) AppleWebKit/537.36 (KHTML, like Gecko) Chrome/133.0.0.0 Safari/537.36 Edg/133.0.0.0" version="24.7.7">
  <diagram name="Sayfa -1" id="CY6cFvrETrv87Cf4Ue-h">
    <mxGraphModel dx="1226" dy="665" grid="1" gridSize="10" guides="1" tooltips="1" connect="1" arrows="1" fold="1" page="1" pageScale="1" pageWidth="827" pageHeight="1169" math="0" shadow="0">
      <root>
        <mxCell id="0" />
        <mxCell id="1" parent="0" />
        <mxCell id="Tn__JYYM6KKS9QT0r3XY-1" value="ACCELARATOR SYSTEM" style="rounded=0;whiteSpace=wrap;html=1;fillColor=none;" vertex="1" parent="1">
          <mxGeometry x="230" y="340" width="270" height="600" as="geometry" />
        </mxCell>
        <mxCell id="Tn__JYYM6KKS9QT0r3XY-11" value="" style="edgeStyle=orthogonalEdgeStyle;rounded=0;orthogonalLoop=1;jettySize=auto;html=1;exitX=1;exitY=0.5;exitDx=0;exitDy=0;entryX=0;entryY=0.5;entryDx=0;entryDy=0;" edge="1" parent="1" source="Tn__JYYM6KKS9QT0r3XY-2" target="Tn__JYYM6KKS9QT0r3XY-7">
          <mxGeometry relative="1" as="geometry" />
        </mxCell>
        <mxCell id="Tn__JYYM6KKS9QT0r3XY-13" value="" style="edgeStyle=orthogonalEdgeStyle;rounded=0;orthogonalLoop=1;jettySize=auto;html=1;" edge="1" parent="1" source="Tn__JYYM6KKS9QT0r3XY-2" target="Tn__JYYM6KKS9QT0r3XY-5">
          <mxGeometry relative="1" as="geometry" />
        </mxCell>
        <mxCell id="Tn__JYYM6KKS9QT0r3XY-24" style="edgeStyle=orthogonalEdgeStyle;rounded=0;orthogonalLoop=1;jettySize=auto;html=1;exitX=0.75;exitY=1;exitDx=0;exitDy=0;entryX=0.75;entryY=0;entryDx=0;entryDy=0;" edge="1" parent="1">
          <mxGeometry relative="1" as="geometry">
            <mxPoint x="448" y="570" as="sourcePoint" />
            <mxPoint x="448" y="680" as="targetPoint" />
          </mxGeometry>
        </mxCell>
        <mxCell id="Tn__JYYM6KKS9QT0r3XY-2" value="APPLICATION LAYER" style="rounded=0;whiteSpace=wrap;html=1;" vertex="1" parent="1">
          <mxGeometry x="255" y="510" width="220" height="60" as="geometry" />
        </mxCell>
        <mxCell id="Tn__JYYM6KKS9QT0r3XY-15" style="edgeStyle=orthogonalEdgeStyle;rounded=0;orthogonalLoop=1;jettySize=auto;html=1;exitX=0;exitY=0.5;exitDx=0;exitDy=0;entryX=1;entryY=0.5;entryDx=0;entryDy=0;" edge="1" parent="1">
          <mxGeometry relative="1" as="geometry">
            <mxPoint x="130" y="702" as="targetPoint" />
            <mxPoint x="255" y="702" as="sourcePoint" />
          </mxGeometry>
        </mxCell>
        <mxCell id="Tn__JYYM6KKS9QT0r3XY-20" style="edgeStyle=orthogonalEdgeStyle;rounded=0;orthogonalLoop=1;jettySize=auto;html=1;exitX=0.25;exitY=0;exitDx=0;exitDy=0;entryX=0.25;entryY=1;entryDx=0;entryDy=0;" edge="1" parent="1">
          <mxGeometry relative="1" as="geometry">
            <mxPoint x="270" y="680" as="sourcePoint" />
            <mxPoint x="270" y="570" as="targetPoint" />
          </mxGeometry>
        </mxCell>
        <mxCell id="Tn__JYYM6KKS9QT0r3XY-25" style="edgeStyle=orthogonalEdgeStyle;rounded=0;orthogonalLoop=1;jettySize=auto;html=1;exitX=0.75;exitY=1;exitDx=0;exitDy=0;entryX=0.75;entryY=0;entryDx=0;entryDy=0;" edge="1" parent="1" source="Tn__JYYM6KKS9QT0r3XY-3" target="Tn__JYYM6KKS9QT0r3XY-4">
          <mxGeometry relative="1" as="geometry" />
        </mxCell>
        <mxCell id="Tn__JYYM6KKS9QT0r3XY-3" value="INTERFACE LAYER" style="rounded=0;whiteSpace=wrap;html=1;" vertex="1" parent="1">
          <mxGeometry x="255" y="680" width="220" height="60" as="geometry" />
        </mxCell>
        <mxCell id="Tn__JYYM6KKS9QT0r3XY-17" style="edgeStyle=orthogonalEdgeStyle;rounded=0;orthogonalLoop=1;jettySize=auto;html=1;exitX=0.25;exitY=0;exitDx=0;exitDy=0;entryX=0.25;entryY=1;entryDx=0;entryDy=0;" edge="1" parent="1" source="Tn__JYYM6KKS9QT0r3XY-4" target="Tn__JYYM6KKS9QT0r3XY-3">
          <mxGeometry relative="1" as="geometry" />
        </mxCell>
        <mxCell id="Tn__JYYM6KKS9QT0r3XY-4" value="SOURCE LAYER" style="rounded=0;whiteSpace=wrap;html=1;" vertex="1" parent="1">
          <mxGeometry x="255" y="810" width="220" height="60" as="geometry" />
        </mxCell>
        <mxCell id="Tn__JYYM6KKS9QT0r3XY-9" style="edgeStyle=orthogonalEdgeStyle;rounded=0;orthogonalLoop=1;jettySize=auto;html=1;exitX=0.5;exitY=1;exitDx=0;exitDy=0;" edge="1" parent="1" source="Tn__JYYM6KKS9QT0r3XY-5" target="Tn__JYYM6KKS9QT0r3XY-2">
          <mxGeometry relative="1" as="geometry" />
        </mxCell>
        <mxCell id="Tn__JYYM6KKS9QT0r3XY-10" value="ADC VERİSİ&amp;nbsp;" style="edgeLabel;html=1;align=center;verticalAlign=middle;resizable=0;points=[];" vertex="1" connectable="0" parent="Tn__JYYM6KKS9QT0r3XY-9">
          <mxGeometry x="-0.1143" y="-2" relative="1" as="geometry">
            <mxPoint as="offset" />
          </mxGeometry>
        </mxCell>
        <mxCell id="Tn__JYYM6KKS9QT0r3XY-5" value="CONTROLLER LAYER" style="rounded=0;whiteSpace=wrap;html=1;" vertex="1" parent="1">
          <mxGeometry x="255" y="380" width="220" height="60" as="geometry" />
        </mxCell>
        <mxCell id="Tn__JYYM6KKS9QT0r3XY-8" style="edgeStyle=orthogonalEdgeStyle;rounded=0;orthogonalLoop=1;jettySize=auto;html=1;entryX=0;entryY=0.5;entryDx=0;entryDy=0;" edge="1" parent="1" target="Tn__JYYM6KKS9QT0r3XY-5">
          <mxGeometry relative="1" as="geometry">
            <mxPoint x="220" y="410" as="targetPoint" />
            <mxPoint x="110" y="410" as="sourcePoint" />
          </mxGeometry>
        </mxCell>
        <mxCell id="Tn__JYYM6KKS9QT0r3XY-6" value="Actor" style="shape=umlActor;verticalLabelPosition=bottom;verticalAlign=top;html=1;outlineConnect=0;" vertex="1" parent="1">
          <mxGeometry x="70" y="380" width="30" height="60" as="geometry" />
        </mxCell>
        <mxCell id="Tn__JYYM6KKS9QT0r3XY-7" value="MOTOR DRIVER&lt;div&gt;&lt;br&gt;&lt;/div&gt;" style="shape=image;html=1;verticalAlign=top;verticalLabelPosition=bottom;labelBackgroundColor=#ffffff;imageAspect=0;aspect=fixed;image=https://cdn2.iconfinder.com/data/icons/circle-icons-1/64/carwheel-128.png" vertex="1" parent="1">
          <mxGeometry x="620" y="506" width="68" height="68" as="geometry" />
        </mxCell>
        <mxCell id="Tn__JYYM6KKS9QT0r3XY-26" style="edgeStyle=orthogonalEdgeStyle;rounded=0;orthogonalLoop=1;jettySize=auto;html=1;exitX=1;exitY=0.5;exitDx=0;exitDy=0;" edge="1" parent="1">
          <mxGeometry relative="1" as="geometry">
            <mxPoint x="130" y="720" as="sourcePoint" />
            <mxPoint x="255" y="720" as="targetPoint" />
          </mxGeometry>
        </mxCell>
        <mxCell id="Tn__JYYM6KKS9QT0r3XY-21" value="MAIN SYSTEM" style="rounded=0;whiteSpace=wrap;html=1;" vertex="1" parent="1">
          <mxGeometry x="60" y="590" width="70" height="240" as="geometry" />
        </mxCell>
      </root>
    </mxGraphModel>
  </diagram>
</mxfile>
